/* XPM */
static char *dummy[]={
"64 64 23 1",
". c #19b8e0",
"k c #301611",
"i c #310f09",
"n c #31110b",
"o c #31120c",
"p c #31140e",
"m c #31140f",
"c c #320a02",
"j c #320b04",
"q c #320c05",
"l c #320d05",
"g c #542a11",
"h c #562a11",
"t c #562c13",
"r c #582a11",
"f c #592b12",
"s c #592c13",
"u c #7f471e",
"e c #854114",
"d c #c49438",
"b c #fbfefe",
"a c #fcfefe",
"# c #ffffff",
"................................................................",
"................................................................",
"................................................................",
"................................................................",
"................................................................",
"................................................................",
"......................#####.....................................",
"......................#####.....................................",
"......................###ab.....................................",
"...........................###..................................",
"...........................###..................................",
"...........................###..................................",
".................cccccc.......###...............................",
".................cccccc.......###......##########...............",
".................cccccc.......###......##########...............",
"..............cccddddddccc.............##########...............",
"..............cccddddddccc..........###.........................",
"..............cccddddddccc..........###.........................",
"..............ccceeeddddddccc.......###....ccccccccc............",
"..............ccceeeddddddccc..............ccccccccc............",
"..............ccceeeddddddccc..............ccccccccc............",
".................ccccccccc..............ccceeeddddddccc.........",
".................ccccccccc..............ccceeeddddddccc.........",
"........###......ccccccccc..............ccceeeddddddccc.........",
"........###.....................ccc.....cccddddddffgccc.........",
"........###.....................ccc.....cccddddddfffccc.........",
"........###.........###.........ccc.....cccddddddhffccc.........",
"........###.........###......cccdddccc..ccceeeeeeccc............",
".....###............###......cccdddccc..ccceeeeeeccc............",
".....###.....cijk............cccdddccc..ccceeeeeeccc............",
".....###.....cccc.........ccceeedddccc.....cccccc...............",
".....###.....cccc.........ccceeedddccc.....cccccc...............",
".....###..cccddddlcc......ccceeedddccc.....cccccc...............",
"..........cccddddccc.........cccccc.............................",
"..........cccddddccc.........cccccc.............................",
"..........cccddddccc.........cccccc.............................",
".............mnoc..........................cccccc...............",
".............cccp..........................cccccc...............",
".............qcjj.................###......cccccc...............",
"....................ccccccccc.....###...cccddddddccc............",
"....................ccccccccc.....###...cccddddddccc............",
"....................ccccccccc.....###...cccddddddccc............",
".................cccfffdddffrccc..###...ccceeedddccc............",
".................cccfffdddfffccc..###...ccceeedddccc............",
".................cccsftdddffhccc..###...ccceeedddccc............",
"..............cccdddfffddddddccc...........cccccc...............",
"..............cccdddfffddddddccc...........cccccc...............",
"..............ccceeeddddddccc..............cccccc...............",
"..............ccceeeddddddccc......................###..........",
"..............ccceeeddddddccc......................###..........",
".................ccceeeeeeccc......................###..........",
".................ccceeeeeuccc...................###.............",
".................ccceeeeeeccc...................###.............",
"....................cccccc.....###..............###.............",
"....................cccccc.....###..............................",
"....................cccccc.....###..............................",
"................................................................",
"................................................................",
"................................................................",
"................................................................",
"................................................................",
"................................................................",
"................................................................",
"................................................................"};
