/* XPM */
static char *dummy[]={
"64 64 217 2",
".a c #000000",
"bf c #010100",
".J c #020100",
"a9 c #040200",
"#9 c #050300",
".w c #060300",
".L c #080400",
"b. c #090500",
"#c c #0a0500",
"## c #0b0600",
"#S c #0c0700",
"#D c #0e0800",
"#x c #100900",
"aT c #110900",
"bj c #130a00",
"ad c #140b00",
"#C c #150b00",
"#a c #160c00",
".3 c #170d00",
".G c #180d00",
"aM c #190e00",
"au c #1a0e00",
".z c #1b0f00",
".D c #1c0f00",
".9 c #1d1000",
"#h c #1e1000",
"b# c #1f1100",
"#W c #211200",
"ax c #221300",
"#5 c #241400",
"#B c #251400",
".6 c #271500",
"#J c #281600",
"aa c #2a1700",
"bg c #2b1700",
"am c #2c1800",
"#q c #2e1900",
"a# c #2f1a00",
"#z c #301a00",
".d c #311b00",
".v c #321b00",
".M c #331c00",
"an c #341c00",
".O c #351d00",
".t c #361d00",
"ao c #371e00",
"#4 c #381f00",
".q c #391f00",
"a6 c #3a2000",
"ag c #3b2000",
"#f c #3c2100",
".P c #3d2100",
"az c #3e2200",
"a4 c #3f2200",
"aF c #402300",
"#G c #422400",
".0 c #432500",
"a1 c #442500",
"be c #452600",
"a. c #462600",
"#M c #472700",
".n c #492800",
".R c #4a2800",
"aU c #4b2900",
"#u c #4c2900",
"#s c #4d2a00",
"#j c #4e2b00",
"#m c #4f2b00",
".j c #502c00",
"aj c #522d00",
".l c #532d00",
"bw c #542e00",
".T c #552e00",
"bb c #562f00",
"a3 c #572f00",
"#Q c #583000",
".i c #593100",
"aI c #5a3100",
".b c #5c3200",
"#k c #5d3300",
"aB c #5e3300",
".U c #5f3400",
".W c #603400",
"#N c #613500",
".g c #623500",
"#7 c #643700",
"#A c #653700",
"ak c #663800",
"#F c #673800",
"#2 c #683900",
"bn c #693900",
"bq c #6a3a00",
"#l c #6b3a00",
"aV c #6c3b00",
"#t c #6d3b00",
"bd c #6e3c00",
"#e c #6f3d00",
".r c #703d00",
".f c #723e00",
"bc c #733f00",
".h c #743f00",
".V c #754000",
".Y c #764000",
".1 c #774100",
"a8 c #784100",
"bv c #794200",
".# c #7a4300",
"at c #7b4300",
".c c #7c4400",
"ay c #7d4400",
"#r c #7e4500",
"aG c #804600",
"a7 c #814600",
"#U c #824700",
"#P c #834700",
"#3 c #844800",
"ap c #854800",
"aP c #874a00",
"bo c #884a00",
"aD c #894b00",
"#g c #8a4b00",
"#6 c #8b4c00",
"aX c #8c4c00",
".Q c #8d4d00",
".o c #8e4d00",
".8 c #904e00",
"ab c #914f00",
".A c #925000",
"bh c #935000",
"aZ c #945100",
"#I c #955100",
".F c #965200",
".7 c #975200",
"aK c #985300",
".4 c #9a5400",
"aw c #9b5400",
".I c #9c5500",
"#X c #9e5600",
"#y c #9f5700",
"#8 c #a05700",
"#Z c #a25800",
"bl c #a35900",
"aq c #a45900",
"as c #a55a00",
"#R c #a65a00",
".K c #a75b00",
"aC c #a85c00",
".x c #a95c00",
"#E c #aa5d00",
"#d c #ab5d00",
"aR c #ad5e00",
"#w c #ae5f00",
"ac c #af5f00",
"br c #b06000",
"ae c #b16000",
"aH c #b26100",
".2 c #b36200",
"bk c #b46200",
".H c #b66300",
"av c #b76400",
"aN c #b86400",
"#b c #b96500",
"ar c #bb6600",
".y c #bc6600",
".B c #bd6700",
"#. c #be6800",
"ah c #bf6800",
"#0 c #c06900",
".E c #c26a00",
".C c #c36a00",
"bi c #c56b00",
"bt c #c66c00",
"#i c #c76c00",
".5 c #c96e00",
"aJ c #ca6e00",
"#K c #cb6f00",
"#V c #cc6f00",
"al c #ce7000",
"a0 c #cf7100",
"bu c #d07100",
"#p c #d27200",
".e c #d47400",
"aW c #d57400",
"bm c #d67500",
"bs c #d77500",
"aO c #d87600",
".X c #d97600",
"aQ c #da7700",
"aL c #db7700",
".N c #dc7800",
"aY c #dd7800",
".u c #df7a00",
".s c #e07a00",
"#o c #e17b00",
".p c #e27b00",
"af c #e37c00",
"#T c #e47c00",
"aA c #e87e00",
"#1 c #e97f00",
"#H c #ea8000",
"aE c #eb8000",
".Z c #ec8100",
"#O c #ee8200",
"a2 c #f08300",
"#Y c #f28400",
"#L c #f38400",
"bp c #f58600",
"ai c #f68600",
"ba c #f78700",
".S c #f88700",
".m c #f98800",
".k c #fa8800",
"#n c #fb8900",
"#v c #fc8900",
"a5 c #fd8a00",
"aS c #fe8a00",
"Qt c #ff8b00",
"QtQtQtQtQtQtQtQt.#.a.a.a.a.a.a.a.a.bQtQtQtQtQtQtQtQtQtQtQtQtQtQtQt.c.a.a.a.a.a.a.a.a.d.eQtQtQtQtQtQtQtQtQtQtQtQtQtQtQtQt.f.a.a.a",
"QtQtQtQtQtQtQt.g.a.a.a.a.a.a.a.a.hQtQtQtQtQtQtQtQtQtQtQtQtQtQtQt.i.a.a.a.a.a.a.a.a.j.kQtQtQtQtQtQtQtQtQtQtQtQtQtQtQtQt.l.a.a.a.a",
"QtQtQtQtQt.m.n.a.a.a.a.a.a.a.a.oQtQtQtQtQtQtQtQtQtQtQtQtQtQt.p.q.a.a.a.a.a.a.a.a.rQtQtQtQtQtQtQtQtQtQtQtQtQtQtQtQt.s.t.a.a.a.a.a",
"QtQtQtQt.u.v.a.a.a.a.a.a.a.w.xQtQtQtQtQtQtQtQtQtQtQtQtQtQt.y.z.a.a.a.a.a.a.a.a.AQtQtQtQtQtQtQtQtQtQtQtQtQtQtQtQt.B.z.a.a.a.a.a.a",
"QtQtQt.C.D.a.a.a.a.a.a.a.D.EQtQtQtQtQtQtQtQtQtQtQtQtQtQt.F.a.a.a.a.a.a.a.a.G.HQtQtQtQtQtQtQtQtQtQtQtQtQtQtQtQt.I.J.a.a.a.a.a.a.a",
"QtQt.K.L.a.a.a.a.a.a.a.M.NQtQtQtQtQtQtQtQtQtQtQtQtQtQt.h.a.a.a.a.a.a.a.a.O.NQtQtQtQtQtQtQtQtQtQtQtQtQtQtQtQt.c.a.a.a.a.a.a.a.a.P",
"Qt.Q.a.a.a.a.a.a.a.a.R.SQtQtQtQtQtQtQtQtQtQtQtQtQtQt.l.a.a.a.a.a.a.a.a.TQtQtQtQtQtQtQtQtQtQtQtQtQtQtQtQtQt.U.a.a.a.a.a.a.a.a.iQt",
".V.a.a.a.a.a.a.a.a.WQtQtQtQtQtQtQtQtQtQtQtQtQtQt.X.O.a.a.a.a.a.a.a.a.YQtQtQtQtQtQtQtQtQtQtQtQtQtQtQtQt.Z.0.a.a.a.a.a.a.a.a.1QtQt",
".a.a.a.a.a.a.a.a.1QtQtQtQtQtQtQtQtQtQtQtQtQtQt.2.3.a.a.a.a.a.a.a.a.4QtQtQtQtQtQtQtQtQtQtQtQtQtQtQtQt.5.6.a.a.a.a.a.a.a.a.7QtQtQt",
".a.a.a.a.a.a.a.8QtQtQtQtQtQtQtQtQtQtQtQtQtQt.8.a.a.a.a.a.a.a.a.9#.QtQtQtQtQtQtQtQtQtQtQtQtQtQtQtQt.x##.a.a.a.a.a.a.a#a#bQtQtQtQt",
".a.a.a.a.a#c#dQtQtQtQtQtQtQtQtQtQtQtQtQtQt#e.a.a.a.a.a.a.a.a#f.pQtQtQtQtQtQtQtQtQtQtQtQtQtQtQtQt#g.a.a.a.a.a.a.a.a.v.XQtQtQtQtQt",
".a.a.a.a#h#iQtQtQtQtQtQtQtQtQtQtQtQtQt.S#j.a.a.a.a.a.a.a.a#kQtQtQtQtQtQtQtQtQtQtQtQtQtQtQtQtQt#l.a.a.a.a.a.a.a.a#m#nQtQtQtQtQtQt",
".a.a.a.O#oQtQtQtQtQtQtQtQtQtQtQtQtQt#p#q.a.a.a.a.a.a.a.a#rQtQtQtQtQtQtQtQtQtQtQtQtQtQtQtQt.k#s.a.a.a.a.a.a.a.a#tQtQtQtQtQtQtQtQt",
".a.a#u#vQtQtQtQtQtQtQtQtQtQtQtQtQt#w#x.a.a.a.a.a.a.a.w#yQtQtQtQtQtQtQtQtQtQtQtQtQtQtQtQt.X#z.a.a.a.a.a.a.a.a#gQtQtQtQtQtQtQtQtQt",
".a#AQtQtQtQtQtQtQtQtQtQtQtQtQtQt#g.a.a.a.a.a.a.a.a#B.CQtQtQtQtQtQtQtQtQtQtQtQtQtQtQtQt.H#C.a.a.a.a.a.a.a#D#EQtQtQtQtQtQtQtQtQtQt",
".cQtQtQtQtQtQtQtQtQtQtQtQtQtQt#F.a.a.a.a.a.a.a.a#G#HQtQtQtQtQtQtQtQtQtQtQtQtQtQtQtQt#I.a.a.a.a.a.a.a.a#J#KQtQtQtQtQtQtQtQtQtQtQt",
"QtQtQtQtQtQtQtQtQtQtQtQtQt#L#M.a.a.a.a.a.a.a.a#NQtQtQtQtQtQtQtQtQtQtQtQtQtQtQtQtQt.V.a.a.a.a.a.a.a.a.0#OQtQtQtQtQtQtQtQtQtQtQtQt",
"QtQtQtQtQtQtQtQtQtQtQtQt#K#J.a.a.a.a.a.a.a.a#PQtQtQtQtQtQtQtQtQtQtQtQtQtQtQtQtQt#Q.a.a.a.a.a.a.a.a.UQtQtQtQtQtQtQtQtQtQtQtQtQtQt",
"QtQtQtQtQtQtQtQtQtQtQt#R#S.a.a.a.a.a.a.a###RQtQtQtQtQtQtQtQtQtQtQtQtQtQtQtQt#T.P.a.a.a.a.a.a.a.a#rQtQtQtQtQtQtQtQtQtQtQtQtQtQtQt",
"QtQtQtQtQtQtQtQtQtQt#U.a.a.a.a.a.a.a.a#J#VQtQtQtQtQtQtQtQtQtQtQtQtQtQtQtQt.E#W.a.a.a.a.a.a.a.J#XQtQtQtQtQtQtQtQtQtQtQtQtQtQtQtQt",
"QtQtQtQtQtQtQtQtQt#N.a.a.a.a.a.a.a.a#M#YQtQtQtQtQtQtQtQtQtQtQtQtQtQtQtQt#Z.w.a.a.a.a.a.a.a.D#0QtQtQtQtQtQtQtQtQtQtQtQtQtQtQtQtQt",
"QtQtQtQtQtQtQt#1.0.a.a.a.a.a.a.a.a#2QtQtQtQtQtQtQtQtQtQtQtQtQtQtQtQtQt#3.a.a.a.a.a.a.a.a#4.sQtQtQtQtQtQtQtQtQtQtQtQtQtQtQtQtQtQt",
"QtQtQtQtQtQt.C#5.a.a.a.a.a.a.a.a#6QtQtQtQtQtQtQtQtQtQtQtQtQtQtQtQtQt#7.a.a.a.a.a.a.a.a.TQtQtQtQtQtQtQtQtQtQtQtQtQtQtQtQtQtQtQt.f",
"QtQtQtQtQt#8#9.a.a.a.a.a.a.a#x#wQtQtQtQtQtQtQtQtQtQtQtQtQtQtQtQt#Ya..a.a.a.a.a.a.a.a.hQtQtQtQtQtQtQtQtQtQtQtQtQtQtQtQtQtQt#Y#s.a",
"QtQtQtQt#r.a.a.a.a.a.a.a.aa##pQtQtQtQtQtQtQtQtQtQtQtQtQtQtQtQt#paa.a.a.a.a.a.a.a.aabQtQtQtQtQtQtQtQtQtQtQtQtQtQtQtQtQtQt#i#J.a.a",
"QtQtQt.b.a.a.a.a.a.a.a.a#m.SQtQtQtQtQtQtQtQtQtQtQtQtQtQtQtQtac#x.a.a.a.a.a.a.aadaeQtQtQtQtQtQtQtQtQtQtQtQtQtQtQtQtQtQt#y.w.a.a.a",
"Qtafag.a.a.a.a.a.a.a.a#eQtQtQtQtQtQtQtQtQtQtQtQtQtQtQtQtQt.o.a.a.a.a.a.a.a.a#q#pQtQtQtQtQtQtQtQtQtQtQtQtQtQtQtQtQtQt.1.a.a.a.a.a",
"ah.D.a.a.a.a.a.a.a.a.8QtQtQtQtQtQtQtQtQtQtQtQtQtQtQtQtQt#e.a.a.a.a.a.a.a.a.naiQtQtQtQtQtQtQtQtQtQtQtQtQtQtQtQtQt.m.j.a.a.a.a.a.a",
".a.a.a.a.a.a.a.a.G.2QtQtQtQtQtQtQtQtQtQtQtQtQtQtQtQtQtaj.a.a.a.a.a.a.a.aakQtQtQtQtQtQtQtQtQtQtQtQtQtQtQtQtQtQtalam.a.a.a.a.a.a.a",
".a.a.a.a.a.a.aan.XQtQtQtQtQtQtQtQtQtQtQtQtQtQtQtQt.Nao.a.a.a.a.a.a.a.aapQtQtQtQtQtQtQtQtQtQtQtQtQtQtQtQtQtQtaq#c.a.a.a.a.a.a.a.a",
".a.a.a.a.a.a.lQtQtQtQtQtQtQtQtQtQtQtQtQtQtQtQtQtar.z.a.a.a.a.a.a.a.LasQtQtQtQtQtQtQtQtQtQtQtQtQtQtQtQtQtQtat.a.a.a.a.a.a.a.aauav",
".a.a.a.a.a.hQtQtQtQtQtQtQtQtQtQtQtQtQtQtQtQtQtaw.a.a.a.a.a.a.a.aax#iQtQtQtQtQtQtQtQtQtQtQtQtQtQtQtQtQtQt.T.a.a.a.a.a.a.a.a#f.pQt",
".a.a.a.a.7QtQtQtQtQtQtQtQtQtQtQtQtQtQtQtQtQtay.a.a.a.a.a.a.a.aazaAQtQtQtQtQtQtQtQtQtQtQtQtQtQtQtQtQt.e.d.a.a.a.a.a.a.a.a#NQtQtQt",
".a.a.z.BQtQtQtQtQtQtQtQtQtQtQtQtQtQtQtQtQtaB.a.a.a.a.a.a.a.a.bQtQtQtQtQtQtQtQtQtQtQtQtQtQtQtQtQtQtaC#x.a.a.a.a.a.a.a.aaDQtQtQtQt",
".a.q#oQtQtQtQtQtQtQtQtQtQtQtQtQtQtQtQtaEaF.a.a.a.a.a.a.a.a.#QtQtQtQtQtQtQtQtQtQtQtQtQtQtQtQtQtQtaG.a.a.a.a.a.a.a.a#CaHQtQtQtQtQt",
"aIQtQtQtQtQtQtQtQtQtQtQtQtQtQtQtQtQtaJ#5.a.a.a.a.a.a.a.aaKQtQtQtQtQtQtQtQtQtQtQtQtQtQtQtQtQtQtaI.a.a.a.a.a.a.a.a#4aLQtQtQtQtQtQt",
"QtQtQtQtQtQtQtQtQtQtQtQtQtQtQtQtQtaC#c.a.a.a.a.a.a.aaMaNQtQtQtQtQtQtQtQtQtQtQtQtQtQtQtQtQtaOao.a.a.a.a.a.a.a.a#kQtQtQtQtQtQtQtQt",
"QtQtQtQtQtQtQtQtQtQtQtQtQtQtQtQtaP.a.a.a.a.a.a.a.aanaQQtQtQtQtQtQtQtQtQtQtQtQtQtQtQtQtQtaR#C.a.a.a.a.a.a.a.a#3QtQtQtQtQtQtQtQtQt",
"QtQtQtQtQtQtQtQtQtQtQtQtQtQtQt#2.a.a.a.a.a.a.a.a#maSQtQtQtQtQtQtQtQtQtQtQtQtQtQtQtQtQtap.a.a.a.a.a.a.a.aaT#dQtQtQtQtQtQtQtQtQtQt",
"QtQtQtQtQtQtQtQtQtQtQtQtQt.SaU.a.a.a.a.a.a.a.aaVQtQtQtQtQtQtQtQtQtQtQtQtQtQtQtQtQtQt.W.a.a.a.a.a.a.a.a.OaWQtQtQtQtQtQtQtQtQtQtQt",
"QtQtQtQtQtQtQtQtQtQtQtQtaW.d.a.a.a.a.a.a.a.aaXQtQtQtQtQtQtQtQtQtQtQtQtQtQtQtQtQtaYag.a.a.a.a.a.a.a.a#QQtQtQtQtQtQtQtQtQtQtQtQtQt",
"QtQtQtQtQtQtQtQtQtQtQt.2#C.a.a.a.a.a.a.a#DaRQtQtQtQtQtQtQtQtQtQtQtQtQtQtQtQtQt.2.G.a.a.a.a.a.a.a.aayQtQtQtQtQtQtQtQtQtQtQtQtQtQt",
"QtQtQtQtQtQtQtQtQtQtaZ.a.a.a.a.a.a.a.a#Ja0QtQtQtQtQtQtQtQtQtQtQtQtQtQtQtQtQtaX.a.a.a.a.a.a.a.a#DasQtQtQtQtQtQtQtQtQtQtQtQtQtQtQt",
"QtQtQtQtQtQtQtQtQt.Y.a.a.a.a.a.a.a.aa1a2QtQtQtQtQtQtQtQtQtQtQtQtQtQtQtQtQt#A.a.a.a.a.a.a.a.aa#a0QtQtQtQtQtQtQtQtQtQtQtQtQtQtQtQt",
"QtQtQtQtQtQtQtQta3.a.a.a.a.a.a.a.a.gQtQtQtQtQtQtQtQtQtQtQtQtQtQtQtQtQt#Ta4.a.a.a.a.a.a.a.aaja5QtQtQtQtQtQtQtQtQtQtQtQtQtQtQtQtap",
"QtQtQtQtQtQtafa6.a.a.a.a.a.a.a.aa7QtQtQtQtQtQtQtQtQtQtQtQtQtQtQtQtQtar.D.a.a.a.a.a.a.a.aa8QtQtQtQtQtQtQtQtQtQtQtQtQtQtQtQtQt.W.a",
"QtQtQtQtQt.C#h.a.a.a.a.a.a.aa9#yQtQtQtQtQtQtQtQtQtQtQtQtQtQtQtQtQt.8.a.a.a.a.a.a.a.ab.#8QtQtQtQtQtQtQtQtQtQtQtQtQtQtQtQtaf.P.a.a",
"QtQtQtQt#8a9.a.a.a.a.a.a.ab#ahQtQtQtQtQtQtQtQtQtQtQtQtQtQtQtQtQt#2.a.a.a.a.a.a.a.aaa#KQtQtQtQtQtQtQtQtQtQtQtQtQtQtQtQt.y.D.a.a.a",
"QtQtQtaG.a.a.a.a.a.a.a.aa6#oQtQtQtQtQtQtQtQtQtQtQtQtQtQtQtQt.Z.0.a.a.a.a.a.a.a.a#sbaQtQtQtQtQtQtQtQtQtQtQtQtQtQtQtQtaZ.a.a.a.a.a",
"QtQt.g.a.a.a.a.a.a.a.abbQtQtQtQtQtQtQtQtQtQtQtQtQtQtQtQtQtah#W.a.a.a.a.a.a.a.abcQtQtQtQtQtQtQtQtQtQtQtQtQtQtQtQtQtbd.a.a.a.a.a.a",
"a2be.a.a.a.a.a.a.a.abcQtQtQtQtQtQtQtQtQtQtQtQtQtQtQtQtQt#Ibf.a.a.a.a.a.a.aa9.IQtQtQtQtQtQtQtQtQtQtQtQtQtQtQtQtaiaU.a.a.a.a.a.a.a",
"bg.a.a.a.a.a.a.a.abhQtQtQtQtQtQtQtQtQtQtQtQtQtQtQtQtQt#t.a.a.a.a.a.a.a.a#BbiQtQtQtQtQtQtQtQtQtQtQtQtQtQtQtQt#Vaa.a.a.a.a.a.a.a.a",
".a.a.a.a.a.a.abjbkQtQtQtQtQtQtQtQtQtQtQtQtQtQtQtQta2.n.a.a.a.a.a.a.a.a.na2QtQtQtQtQtQtQtQtQtQtQtQtQtQtQtQtbl#S.a.a.a.a.a.a.a.J.4",
".a.a.a.a.a.a#qbmQtQtQtQtQtQtQtQtQtQtQtQtQtQtQtQt.C.6.a.a.a.a.a.a.a.a.rQtQtQtQtQtQtQtQtQtQtQtQtQtQtQtQtQt#r.a.a.a.a.a.a.a.a#W.EQt",
".a.a.a.a.aaUbaQtQtQtQtQtQtQtQtQtQtQtQtQtQtQtQt.4a9.a.a.a.a.a.a.a.a.FQtQtQtQtQtQtQtQtQtQtQtQtQtQtQtQtQtaI.a.a.a.a.a.a.a.a#G#1QtQt",
".a.a.a.abnQtQtQtQtQtQtQtQtQtQtQtQtQtQtQtQtQtbc.a.a.a.a.a.a.a.a#WahQtQtQtQtQtQtQtQtQtQtQtQtQtQtQtQt.Na6.a.a.a.a.a.a.a.aakQtQtQtQt",
".a.a.aboQtQtQtQtQtQtQtQtQtQtQtQtQtQtQtQtbp#m.a.a.a.a.a.a.a.aa.#HQtQtQtQtQtQtQtQtQtQtQtQtQtQtQtQtbk.G.a.a.a.a.a.a.a.a#6QtQtQtQtQt",
".a#c#RQtQtQtQtQtQtQtQtQtQtQtQtQtQtQtQt.5aa.a.a.a.a.a.a.a.abqQtQtQtQtQtQtQtQtQtQtQtQtQtQtQtQtQt.o.a.a.a.a.a.a.a.aadbrQtQtQtQtQtQt",
"#B#iQtQtQtQtQtQtQtQtQtQtQtQtQtQtQtQt#8.L.a.a.a.a.a.a.a.a.8QtQtQtQtQtQtQtQtQtQtQtQtQtQtQtQtQt#l.a.a.a.a.a.a.a.a.ObsQtQtQtQtQtQtQt",
"#1QtQtQtQtQtQtQtQtQtQtQtQtQtQtQtQt.#.a.a.a.a.a.a.a.ab##bQtQtQtQtQtQtQtQtQtQtQtQtQtQtQtQt#O#M.a.a.a.a.a.a.a.aa3QtQtQtQtQtQtQtQtQt",
"QtQtQtQtQtQtQtQtQtQtQtQtQtQtQt#naj.a.a.a.a.a.a.a.aaF#TQtQtQtQtQtQtQtQtQtQtQtQtQtQtQtQtbt#B.a.a.a.a.a.a.a.a.#QtQtQtQtQtQtQtQtQtQt",
"QtQtQtQtQtQtQtQtQtQtQtQtQtQtbu#q.a.a.a.a.a.a.a.a#7QtQtQtQtQtQtQtQtQtQtQtQtQtQtQtQtQt#8#9.a.a.a.a.a.a.a.L#yQtQtQtQtQtQtQtQtQtQtQt",
"QtQtQtQtQtQtQtQtQtQtQtQtQt.K#S.a.a.a.a.a.a.a.a#6QtQtQtQtQtQtQtQtQtQtQtQtQtQtQtQtQtbv.a.a.a.a.a.a.a.a.6btQtQtQtQtQtQtQtQtQtQtQtQt",
"QtQtQtQtQtQtQtQtQtQtQtQtay.a.a.a.a.a.a.a.a.GbkQtQtQtQtQtQtQtQtQtQtQtQtQtQtQtQtQtbw.a.a.a.a.a.a.a.a#Ma2QtQtQtQtQtQtQtQtQtQtQtQtQt"};
