/* XPM */
static char *dummy[]={
"64 64 22 1",
"e c #198daa",
". c #19b8e0",
"p c #1ab8e0",
"r c #1db9e0",
"k c #226b7c",
"j c #236a7b",
"h c #236a7c",
"i c #236b7d",
"g c #24697a",
"f c #246a7b",
"t c #f7fcfe",
"o c #f8fdfe",
"c c #f9fdfe",
"q c #fafefe",
"s c #fbfefe",
"l c #fcfefe",
"a c #fcfeff",
"m c #fdfefe",
"d c #fdfeff",
"n c #fefefe",
"b c #feffff",
"# c #ffffff",
"................................................................",
"................................................................",
"................................................................",
"................................................................",
"................................................................",
"....................##########a###..............................",
"....................##############..............................",
"....................##########b###..............................",
".................b##............................................",
".................###............................................",
".................###............................................",
".................b##............................................",
"............####c...............................................",
"............#####...............................................",
"............####d........eeeeeeeeeeee...........................",
".........##b.............eeeeeeeeeeee...........................",
".........b#b.........eeeeeeeeeeeeeeeeeeee.......................",
".........###.........eeeeeeeeeeeeeeeeeeee.......................",
".........b##.......eeeeeeeeeeeeeeeeeeeeeeee.....................",
"...................eeeeeeeeeeeeeeeeeeeeeeee.....................",
".................eeeeeeeeeeefgghgieeeeeeeeeee...................",
".................eeeeeeeeejgggggggggeeeeeeeee...................",
".................eeeeeeeeeggggggggggjjeeeeeeeee.................",
"...............eeeeeeeeeegggggggggggggeeeeeeeee.................",
"...............eeeeeeeejggggggggggggggggeeeeeee.................",
"...............eeeeeeeegggggggggggggggggeeeeeee.................",
"...............eeeeeeeggggggggggggggggjgfeeeeeeee...............",
".............eeeeeeeeegggggggggggggggggggeeeeeeee...............",
".............eeeeeeefgggggggggggggggggggfggeeeeee...............",
".............eeeeeeeiggggggggggggggggggggggeeeeee...............",
".............eeeeeeegggggggggggggggggggggggeeeeee...............",
".............eeeeeeegggggggggggggggggggggggeeeeee...............",
".............eeeeeeegggggggggggggggggggggggeeeeee...............",
".............eeeeeeegggggggggggggggggggggggeeeeee...............",
".............eeeeeeegggggggggggggggggggggggeeeeee...............",
".............eeeeeeeeegggggggggggggggggggggeeeeee...............",
".............eeeeeeeeegggggggggggggggggggeeeeeeee...............",
"...............eeeeeeekggggggggggggggggggeeeeeeee...............",
"...............eeeeeeeeejggggggggggggggeeeeeeee.................",
"...............eeeeeeeeejgggggggggggggjeeeeeeee.................",
"...............eeeeeeeeeeegggggggggggeeeeeeeeee.................",
".................eeeeeeeeejgggggggggjeeeeeeeeee.................",
".................eeeeeeeeeeegggggggeeeeeeeeee...................",
".................eeeeeeeeeeeeeeeeeeeeeeeeeeee...................",
"...................eeeeeeeeeeeeeeeeeeeeeeee.....................",
"...................eeeeeeeeeeeeeeeeeeeeeeee.....................",
".....................eeeeeeeeeeeeeeeeeeee.......................",
".....................eeeeeeeeeeeeeeeeeeee.....b#l...............",
".........................eeeeeeeeeeee.........###...............",
".........................eeeeeeeeeeee.........###...............",
"..........................................###d..................",
"..............m#m.........................####..................",
"..............###.........................b##b..................",
"..............n#n.................####bm#o......................",
".................#daac#l..........########......................",
"................p#######..........d##bqd#n......................",
"................rssssb#t........................................",
"................................................................",
"................................................................",
"................................................................",
"................................................................",
"................................................................",
"................................................................",
"................................................................"};
