/* XPM */
static char *dummy[]={
"64 64 32 1",
"# c #000000",
"B c #070502",
". c #19b8e0",
"C c #1ab8e0",
"D c #22bbe1",
"y c #b14c48",
"s c #b84741",
"t c #ba463f",
"v c #bb453e",
"u c #bc443d",
"x c #bd443c",
"r c #eea9ba",
"w c #f0af46",
"d c #f7af42",
"l c #faa8b8",
"e c #faaf3f",
"f c #fbaf3f",
"c c #fcaf3e",
"z c #fcf089",
"i c #fcfcfc",
"m c #fda8b7",
"g c #fde93e",
"k c #fe8639",
"o c #fe863a",
"p c #fe883c",
"q c #fea8b7",
"A c #fef188",
"j c #fefefe",
"n c #ffa8b7",
"b c #ffe93d",
"a c #fff188",
"h c #ffffff",
"................................................................",
"................................................................",
"................................................................",
"................................................................",
"..............################..................................",
"..............################..................................",
"..............################..................................",
"...........###aaaaaaaaabbbbbbb###...............................",
"...........###aaaaaaaaabbbbbbb###...............................",
"...........###aaaaaabbbbbbbbbb###...............................",
"........###aaaaaaaaabbbbbbbbbbccd###............................",
"........###aaaaaabbbbbbbbbbbbbccc###............................",
"........###aaaaaabbbbbbbbbbbbbecf###............................",
"........###aaaaaabbbbbbbbbbbbbbbbccc###.........................",
".....###aaaaaabbgbbbbbbbbbbbbbbbbccc###.........................",
".....###aaaaaabbbbbbbbbbbbbbbbbbbccc###.........................",
".....###aaaaaabbbbbbbbbbbbbbbbbbbccc###.........................",
".....###aaabbbbbbbbbhi#bbbbbbbbbbccc###.........................",
".....###aaabbbbbbbbjhh##bbbbbbbbbccc###.........................",
".....###aaabbbbbbbbhhh##bbbbbbbbbccc###.........................",
".....######bbbbbbbb#####bbbbbbbbbccc###.........................",
".....######bbbbbbbb#####bbbbbbbbbccc###.........................",
".....######bbbbbbbb#####bbbbbbbbbccc###.........................",
"..###hhhhkk###bbbbb#####bbbbbbbbbccc###.........................",
"..###hhhhkk###bbbbbb###blmnnbbbbbccc###.........................",
"..###okpkkk###bbbbbbbbbbqnnnbbbbbccc############.....#####......",
"..###kkkkkkkkk###bbbbbbbqnnnbbbbbccc############.....#####......",
"..###kkkkkkkkk###bbbbbbbrqnnbbbbbccc############.....#####......",
".....###stuuuv###bbbbbbbbbbbbbccw###bbbbbbbbbbbb#####aaaaa###...",
".....###xxxuxx###bbbbbbbbbbbbbccc###bbbbbbbbbbbb#####aaaaa###...",
".....###yuuuxv###bbbbbbbbbbbbbccc###bbbbbbbbbbbb#####aaaaa###...",
"........######ccccccccccbbbbbb###bbbbbbbbbbbbbbbbbbbbbbbbb###...",
"........######ccccccccccbbbbbb###bbbbbbbbbbbbbbbbbbbbbbbbb###...",
"........######ccccccccccbbbbbb###bbb###############bbbbbbb###...",
"............############bbbbbbbbbbbb###############bbbbbbb###...",
"............############bbbbbbbbbbbb###############bbbbbbb###...",
"............############bbbbbbbbb###aaaaaaaabbbbccc###bbbb###...",
".........###aaabbbbbbbbbbbbbbbbbb###aaaaaaaabbbbccc###bbbb###...",
".........###aaabbbbbbbbbbbbbbbbbb###aaaaaaaabbbbccc###bbbb###...",
".........###aaabbbbbbbbbbbbbbb###aaabbbbbbbbbbbbccc###bbbb###...",
".........###aaabbbbbbbbbbbbbbb###aaabbbbbbbbbbbbccc###bbbb###...",
".........###aaabbbbbbbbbbbbbbb###aaabbbbbbbbbbbbccc###bbbb###...",
".........###aaabbbbbbbbbbbbbbbbbbbbbbbbbbbbbbccc###bbbbbcc###...",
".........###aaabbbbbbbbbbbbbbbbbbbbbbbbbbbbbbccc###bbbbbcc###...",
".........###aaabbbbbbbbbbbbbbbbbbbbbbbbbbbbbbccc###bbbbbcc###...",
".........###zaAbbbbbbbbbbbbbbbbbbbbccccccccccB##bbbbbccccc###...",
".........###cccccbbbbbbbbbbbbbbbbbbcccccccccc###bbbbbccccc###...",
".........###cccccbbbbbbbbbbbbbbbbbbcccccccccc###bbbbbccccc###...",
"......Chhhhh###ccccccbbbbbbbbbbb#############cccccccccc###hhhh..",
".......hhhhh###ccccccbbbbbbbbbbb#############cccccccccc###hhhh..",
".......hhhhh###ccccccbbbbbbbbbbb#############cccccccccc###hhhh..",
"............hhh###cccccccccccccccccccccccccccccccccc###hhh......",
"............hhh###cccccccccccccccccccccccccccccccccc###hhhD.....",
"............hhh###cccccccccccccccccccccccccccccccccc###hhh......",
"...............hhh##################################hhh.........",
"...............hhh##################################hhh.........",
"...............hhh##################################hhh.........",
"..................hhhhhhhhhhhhhhhhhhhhhhhhhhhhhhhhhh............",
"..................hhhhhhhhhhhhhhhhhhhhhhhhhhhhhhhhhh............",
"..................hhhhhhhhhhhhhhhhhhhhhhhhhhhhhhhhhh............",
"................................................................",
"................................................................",
"................................................................",
"................................................................"};
