/* XPM */
static char *dummy[]={
"64 64 32 1",
"# c #000000",
"z c #070502",
". c #19b8e0",
"C c #1ab8e0",
"D c #22bbe1",
"y c #b14c48",
"w c #b84741",
"v c #ba463f",
"t c #bb453e",
"u c #bc443d",
"x c #bd443c",
"r c #eea9ba",
"s c #f0af46",
"c c #f7af42",
"n c #faa8b8",
"f c #faaf3f",
"e c #fbaf3f",
"d c #fcaf3e",
"B c #fcf089",
"h c #fcfcfc",
"m c #fda8b7",
"g c #fde93e",
"k c #fe8639",
"q c #fe863a",
"p c #fe883c",
"o c #fea8b7",
"A c #fef188",
"j c #fefefe",
"l c #ffa8b7",
"a c #ffe93d",
"b c #fff188",
"i c #ffffff",
"................................................................",
"................................................................",
"................................................................",
"................................................................",
"..................................################..............",
"..................................################..............",
"..................................################..............",
"...............................###aaaaaaabbbbbbbbb###...........",
"...............................###aaaaaaabbbbbbbbb###...........",
"...............................###aaaaaaaaaabbbbbb###...........",
"............................###cddaaaaaaaaaabbbbbbbbb###........",
"............................###dddaaaaaaaaaaaaabbbbbb###........",
"............................###edfaaaaaaaaaaaaabbbbbb###........",
".........................###dddaaaaaaaaaaaaaaaabbbbbb###........",
".........................###dddaaaaaaaaaaaaaaaagaabbbbbb###.....",
".........................###dddaaaaaaaaaaaaaaaaaaabbbbbb###.....",
".........................###dddaaaaaaaaaaaaaaaaaaabbbbbb###.....",
".........................###dddaaaaaaaaaa#hiaaaaaaaaabbb###.....",
".........................###dddaaaaaaaaa##iijaaaaaaaabbb###.....",
".........................###dddaaaaaaaaa##iiiaaaaaaaabbb###.....",
".........................###dddaaaaaaaaa#####aaaaaaaa######.....",
".........................###dddaaaaaaaaa#####aaaaaaaa######.....",
".........................###dddaaaaaaaaa#####aaaaaaaa######.....",
".........................###dddaaaaaaaaa#####aaaaa###kkiiii###..",
".........................###dddaaaaallmna###aaaaaa###kkiiii###..",
"......#####.....############dddaaaaallloaaaaaaaaaa###kkkpkq###..",
"......#####.....############dddaaaaallloaaaaaaa###kkkkkkkkk###..",
"......#####.....############dddaaaaalloraaaaaaa###kkkkkkkkk###..",
"...###bbbbb#####aaaaaaaaaaaa###sddaaaaaaaaaaaaa###tuuuvw###.....",
"...###bbbbb#####aaaaaaaaaaaa###dddaaaaaaaaaaaaa###xxuxxx###.....",
"...###bbbbb#####aaaaaaaaaaaa###dddaaaaaaaaaaaaa###txuuuy###.....",
"...###aaaaaaaaaaaaaaaaaaaaaaaaa###aaaaaadddddddddd######........",
"...###aaaaaaaaaaaaaaaaaaaaaaaaa###aaaaaadddddddddd######........",
"...###aaaaaaa###############aaa###aaaaaadddddddddd######........",
"...###aaaaaaa###############aaaaaaaaaaaa############............",
"...###aaaaaaa###############aaaaaaaaaaaa############............",
"...###aaaa###dddaaaabbbbbbbb###aaaaaaaaa############............",
"...###aaaa###dddaaaabbbbbbbb###aaaaaaaaaaaaaaaaaabbb###.........",
"...###aaaa###dddaaaabbbbbbbb###aaaaaaaaaaaaaaaaaabbb###.........",
"...###aaaa###dddaaaaaaaaaaaabbb###aaaaaaaaaaaaaaabbb###.........",
"...###aaaa###dddaaaaaaaaaaaabbb###aaaaaaaaaaaaaaabbb###.........",
"...###aaaa###dddaaaaaaaaaaaabbb###aaaaaaaaaaaaaaabbb###.........",
"...###ddaaaaa###dddaaaaaaaaaaaaaaaaaaaaaaaaaaaaaabbb###.........",
"...###ddaaaaa###dddaaaaaaaaaaaaaaaaaaaaaaaaaaaaaabbb###.........",
"...###ddaaaaa###dddaaaaaaaaaaaaaaaaaaaaaaaaaaaaaabbb###.........",
"...###dddddaaaaa##zddddddddddaaaaaaaaaaaaaaaaaaaaAbB###.........",
"...###dddddaaaaa###ddddddddddaaaaaaaaaaaaaaaaaaddddd###.........",
"...###dddddaaaaa###ddddddddddaaaaaaaaaaaaaaaaaaddddd###.........",
"..iiii###dddddddddd#############aaaaaaaaaaadddddd###iiiiiC......",
"..iiii###dddddddddd#############aaaaaaaaaaadddddd###iiiii.......",
"..iiii###dddddddddd#############aaaaaaaaaaadddddd###iiiii.......",
"......iii###dddddddddddddddddddddddddddddddddd###iii............",
".....Diii###dddddddddddddddddddddddddddddddddd###iii............",
"......iii###dddddddddddddddddddddddddddddddddd###iii............",
".........iii##################################iii...............",
".........iii##################################iii...............",
".........iii##################################iii...............",
"............iiiiiiiiiiiiiiiiiiiiiiiiiiiiiiiiii..................",
"............iiiiiiiiiiiiiiiiiiiiiiiiiiiiiiiiii..................",
"............iiiiiiiiiiiiiiiiiiiiiiiiiiiiiiiiii..................",
"................................................................",
"................................................................",
"................................................................",
"................................................................"};
