/* XPM */
static char *dummy[]={
"64 64 40 1",
". c #19b8e0",
"K c #1ebae1",
"L c #1fbae1",
"D c #293139",
"h c #35464e",
"H c #35474f",
"I c #354850",
"C c #374750",
"z c #374951",
"v c #445a67",
"E c #546671",
"# c #575757",
"G c #576570",
"B c #586671",
"F c #586772",
"x c #596772",
"A c #596773",
"i c #5f7d8b",
"k c #5f808f",
"g c #5f8291",
"c c #5f8292",
"f c #5f8392",
"n c #5f8393",
"d c #608190",
"e c #608291",
"w c #778e9c",
"t c #788e9c",
"u c #788f9d",
"b c #798f9d",
"o c #869da7",
"j c #8aa1a9",
"y c #bac4c6",
"r c #bcc4c5",
"q c #bdc4c5",
"l c #bec4c5",
"s c #c1c3c3",
"p c #c1c3c4",
"m c #c2c3c3",
"a c #c3c3c3",
"J c #ffffff",
"................................................................",
"................................................................",
"................................................................",
"................................................................",
"................................................................",
"................................................................",
"................................................................",
"................................................................",
"................................................................",
"................................................................",
"...............................##########.......................",
"...............................##########.......................",
"...............................##########.......................",
".......................########aaaaaaaaaa###....................",
".......................########aaaaaaaaaa###....................",
".......................########aaaaaaaaaa###....................",
"...................####aaaaaaaaaaaaaaaaaabbb###.................",
"...................####aaaaaaaaaaaaaaaaaabbb###.................",
"...................####aaaaaaaaaaaaabbbbbbbb###.................",
"................###aaaaaaaaaaaaaaaaabbbbbbbb###.................",
"................###aaaaaaaaaaaaaaaaabbbbbbbb###.................",
"................###aaaaaaaaaaaaaaaaabbbbbbbbcdd###..............",
"................###aaaaaaaaaaaaaabbbbbbbbbbbddd###..............",
"................###aaaaaaaaaaaaaabbbbbbbbbbbedf###..............",
".............###aaaaaaaaaaaaaaaaabbbbbbbbbbbede###..............",
".............###aaaaaaaaaaaaaaaaabbbbbbbbddcddc###..............",
".............###aaaaaaaaaaaaabbbbbbbbbbbbdddddf###..............",
".............###aaaaaaaaaaaaabbbbbbbbbbbbdedddg###..............",
".............###aaaaaaaaaaaaabbbbbbbbbbbbfddddg###..............",
".............###aaaaaaaaabbbbbbbbbbbbbddgdddddd###..............",
"..........###aaaaaaaaaaaabbbbbbbbbbbbbdddddddde###..............",
"..........###aaaaaaaaaaaabbbbbbbbbbbbbdddehhhhhhhh###...........",
"..........###aaaaaaaaaaaabbbbbbbbbbbedddddhhhhhhhh###...........",
".......###iiiiiiiiiiiiijjbbbbbbbbbbbdddgdkhhhhhhhh###...........",
".......###iiiiiiiiiiiiijjbbbbbbbbbbbddchhhhhhhhhlalmm###........",
".......###iiiiiiiiiiiiijjbbbbbbbbndddddhhhhhhhaaaaamm###........",
".......###iiiiiiiiiiiiiiiojbbbbbbddddddhhhhhhhpaqmrms###........",
".......###iiiiiiiiiiiiiiijjbbbbgdddddhhhhhhhaamaaaatuuuu###.....",
".......###iiiiiiiiiiiiiiijjbbbtddddddhhhhhhhaamamaauuuuu###.....",
".......###vvvvvviiiiiiiiivvjjdddddhhhhhhhhmaaaaaawuuuuxx###.....",
".......###vvvvvviiiiiiiiivvjjdddddhhhhhhhhaaaaayauuuuuxx###.....",
".......###vvvvvvvvvvvvvvvvvjjzhhhhhhhhhhhaaaaaauuuuuxxhh###.....",
".......###vvvvvvvvvvvvvvvvvjjzhhhhhhhhhhhaaaaaauuuxxxxhh###.....",
".......###vvvvvvvvvvvvvvvvvjjhhhhhhhhhhhhaaaaaawuwxxxAhh###.....",
".......###hhvvvvvvvvvvvvvvhhhhhhhhhhhhhhhhhxxxxxxxBChhhh###.....",
".......###hhvvvvvvvvvvvvvvhhhhhhhhDDDDhhhhhxxExBFxGhhhhh###.....",
".......###hhhhhhhhhhhhhhhhhhhhhhhHDDDDhhhhhhhhhhhhhhhhDD###.....",
".......###hhhhhhhhhhhhhhhhhhhhhIDDDDDDHHhhhhhhhhhhhhhhDD###.....",
".......###hhhhhhhhhhhhhhhhhhhhhHDDDDDDDDhhhhhhhhhhhhDDDD###.....",
".......###hhhhhhhhhhhhhhhhhhhhDDDDDDDDDDhhhhhhhhhhhhDDDD###.....",
"..JJJJJ###DDDhhhhhhhhhhhhhhhhHDDDDDDDDDDDDDhhhhhhhDDDDDD###JJJ..",
".KJJJJJ###DDDDDDDDDDDDDDDDDDDDDDDDDDDDDDDDDhhhhHhhDDDDDD###JJJ..",
"..JJJJJ###DDDDDDDDDDDDDDDDDDDDDDDDDDDDDDDDDDDDDDDDDDDDDD###JJJL.",
".......JJJJJJJJJJJJJJJJJJJDDDDDDDDDDDDDDDDDDDDDDDJJJJJJJJJJ.....",
".......JJJJJJJJJJJJJJJJJJJDDDDDDDDDDDDDDDDDDDDDDDJJJJJJJJJJ.....",
".......JJJJJJJJJJJJJJJJJJJDDDDDDDDDDDDDDDDDDDDDDDJJJJJJJJJJ.....",
"..........................JJJJJJJJJJJJJJJJJJJJJJJ...............",
"..........................JJJJJJJJJJJJJJJJJJJJJJJ...............",
"..........................JJJJJJJJJJJJJJJJJJJJJJJ...............",
"................................................................",
"................................................................",
"................................................................",
"................................................................",
"................................................................"};
